<svg xmlns="http://www.w3.org/2000/svg" version="1.1" xmlns:xlink="http://www.w3.org/1999/xlink" xmlns:svgjs="http://svgjs.dev/svgjs" width="1000" height="937" viewBox="0 0 1000 937"><g transform="matrix(1,0,0,1,0,0)"><svg viewBox="0 0 384 360" data-background-color="#fce44d" preserveAspectRatio="xMidYMid meet" height="937" width="1000" xmlns="http://www.w3.org/2000/svg" xmlns:xlink="http://www.w3.org/1999/xlink"><g id="tight-bounds" transform="matrix(1,0,0,1,0,0)"><svg viewBox="0 0 384 360" height="360" width="384"><g><svg></svg></g><g><svg viewBox="0 0 384 360" height="360" width="384"><g><path xmlns="http://www.w3.org/2000/svg" d="M362.354 145.441v-42.24c0-21.12-19.163-38.402-42.587-38.402h-93.208c-15.198 0-28.337-8.831-34.559-21.646-6.222 12.81-19.36 21.646-34.559 21.646h-93.208c-23.424 0-42.587 17.282-42.587 38.402v42.24c0 15.198-8.831 28.337-21.646 34.559 12.81 6.222 21.646 19.36 21.646 34.559v42.24c0 21.12 19.163 38.402 42.587 38.402h93.208c15.198 0 28.337 8.831 34.559 21.646 6.222-12.81 19.36-21.646 34.559-21.646h93.208c23.424 0 42.587-17.282 42.587-38.402v-42.24c0-15.198 8.831-28.337 21.646-34.559-12.81-6.222-21.646-19.36-21.646-34.559z" fill="#000000" fill-rule="nonzero" stroke="none" stroke-width="1" stroke-linecap="butt" stroke-linejoin="miter" stroke-miterlimit="10" stroke-dasharray="" stroke-dashoffset="0" font-family="none" font-weight="none" font-size="none" text-anchor="none" style="mix-blend-mode: normal" data-fill-palette-color="tertiary"></path></g><g transform="matrix(1,0,0,1,103.91903523756766,99)"><svg viewBox="0 0 176.1619295248647 162" height="162" width="176.1619295248647"><g><svg viewBox="0 0 230.39999999999998 211.87778824102696" height="162" width="176.1619295248647"><g><svg viewBox="0 0 230.39999999999998 211.87778824102696" height="211.87778824102696" width="230.39999999999998"><g><svg viewBox="0 0 230.39999999999998 211.87778824102696" height="211.87778824102696" width="230.39999999999998"><g><svg viewBox="0 0 230.39999999999998 144.99653979238752" height="144.99653979238752" width="230.39999999999998"><g transform="matrix(1,0,0,1,0,0)"><svg width="230.39999999999998" viewBox="0.6000000238418579 -35.52000045776367 57.80000305175781 36.369998931884766" height="144.99653979238752" data-palette-color="#fce44d"><path d="M28.4-10.13L28.4-10.13Q28.4-6.9 26.71-4.42 25.03-1.95 21.88-0.55 18.73 0.85 14.3 0.85L14.3 0.85Q9.4 0.85 6.09-0.59 2.78-2.02 0.6-4.15L0.6-4.15 4.75-8.75Q6.68-7.08 9-6.16 11.33-5.25 14.1-5.25L14.1-5.25Q15.83-5.25 17.13-5.75 18.43-6.25 19.15-7.2 19.88-8.15 19.88-9.5L19.88-9.5Q19.88-10.78 19.3-11.65 18.73-12.53 17.36-13.23 16-13.93 13.58-14.65L13.58-14.65Q9.53-15.9 7.06-17.4 4.6-18.9 3.49-20.88 2.38-22.85 2.38-25.48L2.38-25.48Q2.38-28.65 4.14-30.9 5.9-33.15 8.88-34.34 11.85-35.52 15.43-35.52L15.43-35.52Q19.45-35.52 22.53-34.36 25.6-33.2 27.85-31.05L27.85-31.05 23.98-26.6Q22.23-28.08 20.2-28.79 18.18-29.5 16.07-29.5L16.07-29.5Q14.53-29.5 13.35-29.11 12.18-28.73 11.53-27.98 10.88-27.23 10.88-26.1L10.88-26.1Q10.88-25 11.5-24.25 12.13-23.5 13.68-22.84 15.23-22.18 17.98-21.3L17.98-21.3Q21.25-20.3 23.59-18.91 25.93-17.53 27.16-15.43 28.4-13.33 28.4-10.13ZM46.27 0.85L46.27 0.85Q41.35 0.85 37.97-1.24 34.6-3.33 32.86-7.39 31.12-11.45 31.12-17.4L31.12-17.4Q31.12-21.83 32.36-25.21 33.6-28.6 35.8-30.89 38-33.18 40.92-34.35 43.85-35.52 47.22-35.52L47.22-35.52Q51.02-35.52 53.62-34.35 56.22-33.18 58.25-31.25L58.25-31.25 53.95-26.8Q52.37-28.2 50.92-28.88 49.47-29.55 47.62-29.55L47.62-29.55Q45.87-29.55 44.41-28.86 42.95-28.18 41.86-26.71 40.77-25.25 40.17-22.94 39.57-20.63 39.57-17.35L39.57-17.35Q39.57-12.83 40.31-10.15 41.05-7.48 42.55-6.31 44.05-5.15 46.35-5.15L46.35-5.15Q47.57-5.15 48.65-5.44 49.72-5.73 50.65-6.2L50.65-6.2 50.65-14.13 46.3-14.13 45.5-19.88 58.4-19.88 58.4-2.65Q55.8-1.05 52.81-0.1 49.82 0.85 46.27 0.85Z" opacity="1" transform="matrix(1,0,0,1,0,0)" fill="#fce44d" class="undefined-text-0" data-fill-palette-color="quaternary" id="text-0"></path></svg></g></svg></g><g transform="matrix(1,0,0,1,0,179.2267429204152)"><svg viewBox="0 0 230.39999999999998 32.65104532061175" height="32.65104532061175" width="230.39999999999998"><g transform="matrix(1,0,0,1,0,0)"><svg width="230.39999999999998" viewBox="0.6500000357627869 -43.20000076293945 356.32000732421875 50.5" height="32.65104532061175" data-palette-color="#fce44d"><path d="M15.75 0L5.25 0 0.65-42.95 9.05-42.95 11.45-15.85 13.85-42.95 21.85-42.95 24.15-15.85 26.45-42.95 34.95-42.95 30.25 0 19.95 0 17.8-20.7 15.75 0ZM47.6 0.4Q41.95 0.4 39.5-2.7 37.05-5.8 37.05-11.95L37.05-11.95 37.05-26.65Q37.05-31.7 39.95-34.35 42.85-37 48.05-37L48.05-37Q58.6-37 58.6-26.65L58.6-26.65 58.6-24Q58.6-20 58.5-17.5L58.5-17.5 45.8-17.5 45.8-10.4Q45.8-8.5 46.2-7.43 46.6-6.35 47.9-6.35L47.9-6.35Q48.9-6.35 49.32-6.95 49.75-7.55 49.82-8.33 49.9-9.1 49.9-10.6L49.9-10.6 49.9-14.15 58.6-14.15 58.6-12.05Q58.6-5.65 56.12-2.63 53.65 0.4 47.6 0.4L47.6 0.4ZM45.75-21.85L49.9-21.85 49.9-26.55Q49.9-30.5 47.95-30.5L47.95-30.5Q45.75-30.5 45.75-26.55L45.75-26.55 45.75-21.85ZM75.9 0.4Q72.3 0.4 70.75-3.9L70.75-3.9 70.75 0 61.75 0 61.75-43.2 70.75-43.2 70.75-34.85Q72.84-37 75.65-37L75.65-37Q79.9-37 81.75-34.48 83.59-31.95 83.59-27.2L83.59-27.2 83.59-9.55Q83.59-5.05 81.7-2.33 79.8 0.4 75.9 0.4L75.9 0.4ZM72.95-6.4Q73.84-6.4 74.22-6.98 74.59-7.55 74.67-8.43 74.75-9.3 74.75-11.15L74.75-11.15 74.75-26.4Q74.75-28.35 74.4-29.3 74.05-30.25 72.9-30.25L72.9-30.25Q71.65-30.25 71.2-29.3 70.75-28.35 70.75-26.5L70.75-26.5 70.75-11.15Q70.75-8.75 71.15-7.58 71.55-6.4 72.95-6.4L72.95-6.4ZM98.64 0L98.64-42.95 110.49-42.95Q115.09-42.95 117.39-40.4 119.69-37.85 119.74-32.85L119.74-32.85 119.84-12.75Q119.89-6.4 117.64-3.2 115.39 0 110.19 0L110.19 0 98.64 0ZM107.29-7.6L108.79-7.6Q111.14-7.6 111.14-9.9L111.14-9.9 111.14-32.05Q111.14-33.5 110.92-34.23 110.69-34.95 110.09-35.2 109.49-35.45 108.24-35.45L108.24-35.45 107.29-35.45 107.29-7.6ZM133.39 0.4Q127.74 0.4 125.29-2.7 122.84-5.8 122.84-11.95L122.84-11.95 122.84-26.65Q122.84-31.7 125.74-34.35 128.64-37 133.84-37L133.84-37Q144.39-37 144.39-26.65L144.39-26.65 144.39-24Q144.39-20 144.29-17.5L144.29-17.5 131.59-17.5 131.59-10.4Q131.59-8.5 131.99-7.43 132.39-6.35 133.69-6.35L133.69-6.35Q134.69-6.35 135.11-6.95 135.54-7.55 135.61-8.33 135.69-9.1 135.69-10.6L135.69-10.6 135.69-14.15 144.39-14.15 144.39-12.05Q144.39-5.65 141.91-2.63 139.44 0.4 133.39 0.4L133.39 0.4ZM131.54-21.85L135.69-21.85 135.69-26.55Q135.69-30.5 133.74-30.5L133.74-30.5Q131.54-30.5 131.54-26.55L131.54-26.55 131.54-21.85ZM162.34 0L152.19 0 146.34-36.6 155.09-36.6 156.89-18.1 157.19-12.15 157.54-18.15 159.54-36.6 168.29-36.6 162.34 0ZM180.83 0.4Q175.18 0.4 172.73-2.7 170.28-5.8 170.28-11.95L170.28-11.95 170.28-26.65Q170.28-31.7 173.18-34.35 176.08-37 181.28-37L181.28-37Q191.83-37 191.83-26.65L191.83-26.65 191.83-24Q191.83-20 191.73-17.5L191.73-17.5 179.03-17.5 179.03-10.4Q179.03-8.5 179.43-7.43 179.83-6.35 181.13-6.35L181.13-6.35Q182.13-6.35 182.56-6.95 182.98-7.55 183.06-8.33 183.13-9.1 183.13-10.6L183.13-10.6 183.13-14.15 191.83-14.15 191.83-12.05Q191.83-5.65 189.36-2.63 186.88 0.4 180.83 0.4L180.83 0.4ZM178.98-21.85L183.13-21.85 183.13-26.55Q183.13-30.5 181.18-30.5L181.18-30.5Q178.98-30.5 178.98-26.55L178.98-26.55 178.98-21.85ZM203.88 0L194.98 0 194.98-43.2 203.88-43.2 203.88 0ZM218.03 0.4Q207.08 0.4 207.08-10.95L207.08-10.95 207.08-25.65Q207.08-30.85 210-33.93 212.93-37 218.03-37L218.03-37Q223.13-37 226.05-33.93 228.98-30.85 228.98-25.65L228.98-25.65 228.98-10.95Q228.98 0.4 218.03 0.4L218.03 0.4ZM218.03-6.35Q219.08-6.35 219.58-7.1 220.08-7.85 220.08-9.15L220.08-9.15 220.08-27.05Q220.08-30.25 218.03-30.25L218.03-30.25Q215.98-30.25 215.98-27.05L215.98-27.05 215.98-9.15Q215.98-7.85 216.48-7.1 216.98-6.35 218.03-6.35L218.03-6.35ZM232.23 7.3L232.23-36.6 241.13-36.6 241.13-34.65Q243.03-37 246.38-37L246.38-37Q250.63-37 252.3-34.15 253.98-31.3 253.98-26.25L253.98-26.25 253.98-12.7Q253.98-8.4 253.48-5.68 252.98-2.95 251.28-1.28 249.58 0.4 246.13 0.4L246.13 0.4Q242.83 0.4 241.13-1.45L241.13-1.45 241.13 7.3 232.23 7.3ZM243.23-6.4Q244.43-6.4 244.78-7.5 245.13-8.6 245.13-10.7L245.13-10.7 245.13-26.25Q245.13-28.15 244.78-29.15 244.43-30.15 243.18-30.15L243.18-30.15Q241.13-30.15 241.13-26.35L241.13-26.35 241.13-10.3Q241.13-8.45 241.55-7.43 241.98-6.4 243.23-6.4L243.23-6.4ZM257.22 0L257.22-36.6 265.77-36.6 265.77-32.35Q266.37-34.7 267.82-35.85 269.27-37 271.92-37L271.92-37Q274.07-37 275.65-36.02 277.22-35.05 277.87-33.35L277.87-33.35Q278.97-35.25 280.32-36.13 281.67-37 284.07-37L284.07-37Q288.37-37 290.05-34.38 291.72-31.75 291.72-26.75L291.72-26.75 291.62 0 282.82 0 282.82-26.9Q282.82-30.45 281.02-30.45L281.02-30.45Q279.77-30.45 279.22-29.23 278.67-28 278.67-26.3L278.67-26.3 278.67 0 269.92 0 269.92-26.9Q269.92-28.45 269.6-29.4 269.27-30.35 268.22-30.35L268.22-30.35Q266.87-30.35 266.32-29.03 265.77-27.7 265.77-25.85L265.77-25.85 265.77 0 257.22 0ZM305.37 0.4Q299.72 0.4 297.27-2.7 294.82-5.8 294.82-11.95L294.82-11.95 294.82-26.65Q294.82-31.7 297.72-34.35 300.62-37 305.82-37L305.82-37Q316.37-37 316.37-26.65L316.37-26.65 316.37-24Q316.37-20 316.27-17.5L316.27-17.5 303.57-17.5 303.57-10.4Q303.57-8.5 303.97-7.43 304.37-6.35 305.67-6.35L305.67-6.35Q306.67-6.35 307.1-6.95 307.52-7.55 307.6-8.33 307.67-9.1 307.67-10.6L307.67-10.6 307.67-14.15 316.37-14.15 316.37-12.05Q316.37-5.65 313.9-2.63 311.42 0.4 305.37 0.4L305.37 0.4ZM303.52-21.85L307.67-21.85 307.67-26.55Q307.67-30.5 305.72-30.5L305.72-30.5Q303.52-30.5 303.52-26.55L303.52-26.55 303.52-21.85ZM319.52 0L319.52-36.6 328.27-36.6 328.27-31.95Q328.82-34.2 330.17-35.6 331.52-37 333.77-37L333.77-37Q337.47-37 339.24-34.73 341.02-32.45 341.02-28.25L341.02-28.25 341.02 0 332.42 0 332.42-27.35Q332.42-28.55 331.94-29.4 331.47-30.25 330.47-30.25L330.47-30.25Q329.12-30.25 328.69-29.03 328.27-27.8 328.27-25.75L328.27-25.75 328.27 0 319.52 0ZM352.02 0.4Q348.57 0.4 347.27-1.05 345.97-2.5 345.97-5.7L345.97-5.7 345.97-28.55 343.52-28.55 343.52-35.2 345.97-35.2 345.97-42.95 354.47-42.95 354.47-35.2 356.97-35.2 356.97-28.55 354.47-28.55 354.47-8Q354.47-7.05 354.62-6.6 354.77-6.15 355.42-6.15L355.42-6.15Q355.92-6.15 356.37-6.2 356.82-6.25 356.97-6.25L356.97-6.25 356.97-0.25Q356.22-0.05 354.79 0.18 353.37 0.4 352.02 0.4L352.02 0.4Z" opacity="1" transform="matrix(1,0,0,1,0,0)" fill="#fce44d" class="undefined-text-1" data-fill-palette-color="quaternary" id="text-1"></path></svg></g></svg></g></svg></g></svg></g><g></g></svg></g></svg></g></svg></g><defs></defs></svg><rect width="384" height="360" fill="none" stroke="none" visibility="hidden"></rect></g></svg></g></svg>